/* XPM */
static char *_2b812b4e4074ecd9888e417cbb59dc9[] = {
/* columns rows colors chars-per-pixel */
"64 64 255 2 ",
"   c #010102",
".  c #01030B",
"X  c #0B0A0A",
"o  c #12100F",
"O  c #010914",
"+  c #191715",
"@  c #29231A",
"#  c #30291D",
"$  c #111721",
"%  c #232222",
"&  c #2B2926",
"*  c #322E29",
"=  c #3A342D",
"-  c #383837",
";  c #5E1B00",
":  c #4E3314",
">  c #6C2B02",
",  c #793703",
"<  c #6D3712",
"1  c #733D1B",
"2  c #423B2E",
"3  c #79421C",
"4  c #57462C",
"5  c #4A4339",
"6  c #52483B",
"7  c #5B513D",
"8  c #7A4521",
"9  c #7B4722",
"0  c #685434",
"q  c #4B4845",
"w  c #554D44",
"e  c #5C5548",
"r  c #5B5D57",
"t  c #675B47",
"y  c #73654A",
"u  c #6C6454",
"i  c #7B6E55",
"p  c #525A63",
"a  c #8B4D12",
"s  c #AE5D07",
"d  c #9B601D",
"f  c #B36C11",
"g  c #B56915",
"h  c #BB7819",
"j  c #844D24",
"k  c #8B5526",
"l  c #985B26",
"z  c #945B29",
"x  c #9B622B",
"c  c #9E6C30",
"v  c #A96829",
"b  c #B16A25",
"n  c #B26D2B",
"m  c #A8732C",
"M  c #B6722D",
"N  c #BA742C",
"B  c #A96E31",
"V  c #B26F31",
"C  c #A97534",
"Z  c #B57332",
"A  c #B97632",
"S  c #B27A35",
"D  c #BB7B34",
"F  c #C17E2C",
"G  c #977347",
"H  c #887958",
"J  c #8D7C68",
"K  c #A37F68",
"L  c #BF821B",
"P  c #BE8222",
"I  c #BF872E",
"U  c #BE8235",
"Y  c #BA853A",
"T  c #BD8439",
"R  c #C9861A",
"E  c #C18423",
"W  c #CD8B23",
"Q  c #C2862A",
"!  c #C3892C",
"~  c #D18E24",
"^  c #D2932D",
"/  c #D8972A",
"(  c #C28236",
")  c #C48D34",
"_  c #CA8834",
"`  c #C2853A",
"'  c #C48D3C",
"]  c #CA8D3A",
"[  c #D38C35",
"{  c #C79035",
"}  c #CC9135",
"|  c #C6913D",
" . c #CA933E",
".. c #D39533",
"X. c #D59935",
"o. c #DB9D34",
"O. c #D1963B",
"+. c #D59A3B",
"@. c #D89E3B",
"#. c #DDA037",
"$. c #DCA13C",
"%. c #E2A73D",
"&. c #8E805F",
"*. c #9A855B",
"=. c #AD8D52",
"-. c #968767",
";. c #998E76",
":. c #A48667",
">. c #A49169",
",. c #A79775",
"<. c #AF9671",
"1. c #BDA36B",
"2. c #B4A27A",
"3. c #C68D42",
"4. c #C69241",
"5. c #C99541",
"6. c #CC9A44",
"7. c #C7944B",
"8. c #CD9B4A",
"9. c #D39942",
"0. c #D39D43",
"q. c #D39D4B",
"w. c #CB9A51",
"e. c #D4A246",
"r. c #DEA444",
"t. c #D6A34B",
"y. c #D9A54C",
"u. c #DDAA4D",
"i. c #CFA050",
"p. c #D3A455",
"a. c #D7A852",
"s. c #DCAB54",
"d. c #D3A55A",
"f. c #DBAD5C",
"g. c #DEB255",
"h. c #DDB45D",
"j. c #E3AB4B",
"k. c #E5A948",
"l. c #E2AD54",
"z. c #EAAE51",
"x. c #E2AF58",
"c. c #E4B15A",
"v. c #E8B559",
"b. c #E8B65E",
"n. c #F3B856",
"m. c #D6AB65",
"M. c #DEB363",
"N. c #DEB964",
"B. c #DBB36A",
"V. c #DBB769",
"C. c #C4AB77",
"Z. c #CAAB71",
"A. c #DCBC73",
"S. c #D9B879",
"D. c #E3B664",
"F. c #ECBB61",
"G. c #E5B968",
"H. c #E1BC6D",
"J. c #F1BD60",
"K. c #E2BE72",
"L. c #E7BD75",
"P. c #E8BF78",
"I. c #FBC35C",
"U. c #E8C069",
"Y. c #FDCA66",
"T. c #E2C074",
"R. c #EBC674",
"E. c #EDC975",
"W. c #E3C47B",
"Q. c #EBC27D",
"!. c #E7C97D",
"~. c #EACA7D",
"^. c #F4CB77",
"/. c #F6D17D",
"(. c #888986",
"). c #9A9485",
"_. c #B09A87",
"`. c #BDAD87",
"'. c #A8A298",
"]. c #B7AE99",
"[. c #AEAEA7",
"{. c #B8B8B4",
"}. c #DCBB84",
"|. c #C9B193",
" X c #E3BF81",
".X c #CCB7A5",
"XX c #DDC385",
"oX c #DECB9A",
"OX c #E4C682",
"+X c #EDC682",
"@X c #E5C884",
"#X c #EDCA84",
"$X c #E5C58B",
"%X c #E6CB8C",
"&X c #ECCC8C",
"*X c #F4CC87",
"=X c #FDD484",
"-X c #FCD989",
";X c #E7CD92",
":X c #E8CF94",
">X c #E6C998",
",X c #E8D096",
"<X c #E9D29A",
"1X c #EED99E",
"2X c #F2D699",
"3X c #FFE38A",
"4X c #CEC5B4",
"5X c #ECCFA4",
"6X c #EBD6A3",
"7X c #ECDAA4",
"8X c #E5D2AB",
"9X c #EDDCAB",
"0X c #F2DCA2",
"qX c #F1DBAC",
"wX c #EDD9B8",
"eX c #F1DEB5",
"rX c #F8E2A4",
"tX c #F2E2AC",
"yX c #EFE1B2",
"uX c #F3E4B3",
"iX c #F5E4BC",
"pX c #F5E8BA",
"aX c #FCEDB8",
"sX c #FFF5BC",
"dX c #BDC1C3",
"fX c #CDCFCD",
"gX c #DAD8D3",
"hX c #EEDCC0",
"jX c #E1DED8",
"kX c #ECE3C5",
"lX c #F4E5C3",
"zX c #F6EAC3",
"xX c #F9EBC5",
"cX c #F3E5CB",
"vX c #F5EBCB",
"bX c #FBEFCE",
"nX c #FBF4C7",
"mX c #FCF0CE",
"MX c #EBE4D9",
"NX c #F6EBD3",
"BX c #F9EFD7",
"VX c #FCF2D4",
"CX c #FDF5DA",
"ZX c #FEFADE",
"AX c #EEEDEA",
"SX c #F4EEE5",
"DX c #FAF4E4",
"FX c #FFFCE3",
"GX c #F6F3EC",
"HX c #FAF5EA",
"JX c #FEFDEB",
"KX c #ECEEF5",
"LX c #F6F5F4",
"PX c #FDFBF4",
"IX c #FFFFFF",
/* pixels */
"IXIXIXIXIXIXIXIXIXIXIXIXIXIXIXIXqXx.iXIXIXIXIXIXIXIXIXIXIXIXIXIXIXIXIXIXIXIXIXIXIXIXIXIXIXIXIXIXIXIXIXIXIXIXIXIXIXIXIXIXIXIXIXIX",
"IXIXIXIXIXIXIXIXIXIXIXIXIXIXIXIXG.W h wXIXIXIXIXIXIXIXIXIXIXIXIXIXIXIXIXIXIXIXIXIXIXIXIXIXIXIXIXIXIXIXIXIXIXIXIXIXIXIXIXIXIXIXIX",
"IXIXIXIXIXIXIXIXIXIXIXIXIXIXIXDXl.t.b g hXIXIXIXIXIXIXIXIXIXIXIXIXIXIXIXIXIXIXIXIXIXIXIXIXIXIXPX}.d.}.|.IXIXIXIXIXIXIXIXIXIXIXIX",
"IXIXIXIXIXIXIXIXIXIXIXIXIXIXIXBXz.j.c a F DXIXIXIXIXIXIXIXIXIXIXIXIXIXIXIXIXIXIXIXIXIXIXIXIXIXS.f Q R , K LXIXIXIXIXIXIXIXIXIXIX",
"IXIXIXIXIXIXIXIXIXIXIXIXIXIXIXBXl.j.Y C s S.IXIXIXIXIXIXIXIXIXIXIXIXIXIXIXIXIXIXIXIXIXIXIXIX7XX.} O.e.B ; .XIXIXIXIXIXIXIXIXIXIX",
"IXIXIXIXIXIXIXIXIXIXIXIXIXIXIXNXj.l.Y k n g SXIXIXIXIXIXIXIXIXIXIXIXIXIXIXIXIXIXIXIXIXIXIX0X/  .5.6.q.' > ].IXIXIXIXIXIXIXIXIXIX",
"IXIXIXIXIXIXIXIXIXIXIXIXIXIXIXNXj.j.k 1 Z g }.IXIXIXIXIXIXIXIXIXIXIXIXIXIXIXIXIXIXIXIXIXvXk.O.| 5.6.0.C > G IXIXIXIXIXIXIXIXIXIX",
"IXIXIXIXIXIXIXIXIXIXIXIXIXIXIXiXk.l.Z 1 k N h DXIXIXIXIXIXIXIXIXIXIXIXIXIXIXIXIXIXIXIXiX%.+.5. .' 5.e.C < j SXIXIXIXIXIXIXIXIXIX",
"IXIXIXIXIXIXIXIXIXIXIXIXIXIXIXeX$.0.6.z 1 B g 8.IXIXIXIXIXIXIXIXIXIXIXIXIXIXIXIXIXIXlXr.} T 6.6.D ` 0.5.l < MXIXIXIXIXIXIXIXIXIX",
"IXIXIXIXIXIXIXIXIXIXIXIXIXIXIXiX^ | e.C 9 1 z g d.hXDXPXIXIXIXIXIXIXIXIXIXIXIXIXIXHX$.X.` | 8.` A A ` q.Z > .XIXIXIXIXIXIXIXIXIX",
"IXIXIXIXIXIXIXIXIXIXIXIXIXIXIX2X$.' D D T C C Y N ! | 8.d.Z.d.cXLXwXcXIXIXIXIXIXGX8...| D 6.` D D D N ] 4.> _.IXIXIXIXIXIXIXIXIX",
"IXIXIXIXIXIXIXIXIXIXIXIXIXIXIXP...M ` s.c.x.0.6. . .} ) ! Q E  .6.P ) d.m.S.}.S.8.^ 6.x T t. .D D ( D 4.| , <.IXIXIXIXIXIXIXIXIX",
"IXIXIXIXIXIXIXIXIXIXIXIXIXIXNX} U 5.c.F.b.v.a.5. .5.5.5.5.5.5.] ) 6. .! Q h E E } 6.z B e.O.B x V c V ] 6.a :.IXIXIXIXIXIXIXIXIX",
"IXIXIXIXIXIXIXIXIXIXIXIXIXSX! ! g.F.c.c.l.b.x.| 6.5.5.5.5.5.5.5.6.| 5.5.6. .S 6.8.k B t.6.B 9 3 j 9 z ] e., _.IXIXIXIXIXIXIXIXIX",
"IXIXIXIXIXIXIXIXIXIXIXIXPXf.^ D.b.x.x.x.x.b.q.| 5.5. .5.5.5.6.| 4.| 6.5.6.5.` S k l O.0.| S B z j 9 z ] 3., ].IXIXIXIXIXIXIXIXIX",
"IXIXIXIXIXIXIXIXIXIXIXeXD.%.F.c.c.x.x.x.b.a.| | Y 5.5.5.5.| 4.6.4.6.| 4.4.6.e.T z Z 4.5.0.' x j j k V  .D , 4XIXIXIXIXIXIXIXIXIX",
"IXIXIXIXIXIXIXIXHX&XD.@.k.c.c.x.c.x.x.c.c.q.5.D A 6.4.4.6.| 6.4.| 6.5.5.4.4.6.9.4.D ' 6.5.Z j j 8 l ` y.b 3 AXIXIXIXIXIXIXIXIXIX",
"IXIXIXIXIXIXIXcXj.o.j.c.c.x.c.c.c.c.c.c.c.6.| A ' 6.6.| | '  .5.4.| 6.5.6.6.| 5.6.( ' y.] k j 9 j D 6.9.a K IXIXIXIXIXIXIXIXIXIX",
"IXIXIXIXIXIXlX$.r.c.c.x.x.c.x.b.x.x.x.c.s.6.U D 6.4.' 4.q.6.4.| 5.5.5.5.| 6.4.5.6.4.5.' j 1 9 j V 9.q.T , :.IXIXIXIXIXIXIXIXIXIX",
"IXIXIXIXIXPXj.r.b.x.x.x.x.c.F.t.Z q.F.x.6.4.A ' 6.4.6.x.b.b.s.4.| 5.5.5.4.| | 6.4.6.4.c c z j S ' 6.5.| m d DXIXIXIXIXIXIXIXIXIX",
"IXIXIXIXIX<X$.c.l.x.x.x.Y.Y.z.Z v 9.U.t.' ' D 6.| 6.c.b.c.c.b.s.4.5.5.5.5.5.5.4.5.5.4.9.u.' T 0.6.6.' ' 4.h >XIXIXIXIXIXIXIXIXIX",
"IXIXIXIXHXj.k.j.l.u.c.I.Y 9 z [ Z q.x.6.6.D D 6.| y.b.c.x.c.c.g.5.5.5.5.5.5. .6.5.5.| 6.| 6.0.5.5.| ( ' 6.) 4.PXIXIXIXIXIXIXIXIX",
"IXIXIXIXiX/ x.<XtX#XI.c .     j [ 9.6.| 6.| ' 5.6.s.b.x.x.c.b.8.' 5. .5.5.5.5.5.| 6.6.4.6.| 5.5.6.' A ` ` ' L >XIXIXIXIXIXIXIXIX",
"IXIXIXIX&X#.qXFXVXnX/.y p * - * l y.| 5.5.| | | q.c.c.x.l.J.Y.v.| | 4.6.5.5.5.5.4.| 6.4.4.6.| 5.5.4.` ` ( ' { ) SXIXIXIXIXIXIXIX",
"IXIXIXIXr.G.ZXCXxXsX`.{.*   - $ B z.| 5.3.| a.6.6.x.c.b.Y.0.c 4.z.r.| 6.| 6.| 4.6.| 4.6.4.| 5.5.6.6.` V D | 6.h >XIXIXIXIXIXIXIX",
"IXIXIX:Xj.zXbXCXpX-XH dX-     4 =Xq.' { ' f.&Xi.| l.J.Y.k @ .   : 4.z.| 6.4.| 6.6. .6.| 4.6.6.| 4.6.' D D ' 6.E $XIXIXIXIXIXIXIX",
"IXIXIX<XtXFXmXVXtXI.=.(.(.  # Q.L.I 6.8.f.*XT.| ( @.z.< O fX[..   o 4.j.5. .' ) | | Q ) 6.4.] ) ] | 6.' ( 6.4.E m.IXIXIXIXIXIXIX",
"IXIXPXtXzXBXVXVX7Xu.n.G u J +X=XI 6.Q.~.Q.2Xa.N N n #   gX'.% o .     ' e.' 6.6.) 4.B.8.h ) p.p.6.| 6.4.` | 6.} 7.PXIXIXIXIXIXIX",
"IXIXBX0XbXVXmXFX&Xr.z.J.;X-X*X5.p.+X+X+X+XK.q.( [ 1   5 IXq       O & S ..i.vXzXqXzXVX:X}.i.m.bX6Xd.Q 6.| 5.5.| E wXIXIXIXIXIXIX",
"IXIXbXuXVXbXmXZX1X$.r.1XrXQ.L.f.#X+XP.+X+Xf.' 6.t.S + O {.{.    O e w.@.P %XPXFXFXVXVXFXPXxX:XzXVXqX6.| 5.5.5.5.E 8XIXIXIXIXIXIX",
"IXIXzXxXmXmXmXbXpX0X2X#XL.P.P.*XQ.Q.Q.Q.+XB.( H.d.@.Y : 4 ).e 5 t 7.@.E $XFXVXiX7XiXbXbXmXCXFXVXVXFX>X{ | 5.6.| E 8XIXIXIXIXIXIX",
"IXHXpXbXmXmXNXmXnXsX-XE.=X=X*XP.Q.Q.Q.Q.+XA.q.Q.L.5.e.z.` m 7.7.O.^ P }.FXCXmXzXzXVXmXmXmXmXmXbXbXJX$XP | 6.4.4.Q wXIXIXIXIXIXIX",
"IXBXtXbXvXmXmXFX8X>.-.&.-.C.*X3X^.L.Q.L.+XP.P.+X+X6.! | } O.+.+. .| S.FXZXvXbXVXVXbXbXbXbXbXbXbXbXCXiXd.) 6.4.5.E $XIXIXIXIXIXIX",
"IXzXtXxXvXuXZX[.* % & q r - # *.-XE.L.+XL.P.+X+XQ.d.5.) 6.4.) P W.VXCXVXbXbXbXbXbXVXbXbXbXbXVXbXbXVXxXd.) | 4.5.P S.IXIXIXIXIXIX",
"IXuXtXpXtXVXKX.         +       6 eXpXtX1XQ.K.P.L.&XzXiXzXiX<X5XbXFXVXbXbXbXbXbXbXbXbXbXmXbXbXbXbXFX7X) | 6.6.4.' } DXIXIXIXIXIX",
"DX7X9X6XtXIXjX    . X       X     gXIXbXtXuX;XW.L.&XCXJXCXCXFXJXVXbXbXbXbXmXbXbXbXbXmXbXbXbXmXbXbXVXVXB.) | 4.6.5.R  XIXIXIXIXIX",
"NX1X9X1XkXKXIX).#     X         2 MXIXIXzXtXnX%XB.$XBXBXbXbXbXbXmXbXmXbXbXbXbXmXbXbXbXmXNXmXmXmXbXCXiX6.) 5.4.O.+.~ 9.IXIXIXIXIX",
"vX7XyX7XvXAXIXJ @ X   X & *   + `.jXIXLXGXtXyX6XG.P.lXCXmXmXbXbXbXbXbXbXmXbXbXbXbXbXbXbXbXmXmXmXbXFXqX| | 5.O.+.+.+.~ bXIXIXIXIX",
"pXtXyXtXxXIXBX7     X   X + % -.4XgXPXMXKXgXoXXXB.%XlXmXmXbXbXbXbXbXbXbXmXmXbXmXbXVXVXVXVXCXVXVXCXVXPX<X! O.@.+.+.+.R qXIXIXIXIX",
"pXyXyXtXnXIX].<.5         2 &.,.4XKXAXGXIXLXXXd.B.eXqXeXBXbXbXbXmXbXmXmXmXmXmXVXVXVXvXxXpXuXzXlXiXeXCXQ.! X.+.+.+.+.R >XIXIXIXIX",
"pXtXtXtXuXFX'.*.,.e + @ u >.).).{.PXAXLXPXIXW.V.N.tXbXiXqX7XvXVXbXmXbXbXmXCXCXvXqX<X;X;X;X%X;X%X;X;XK.O.+.+.+.+.+.+.W B.IXIXIXIX",
"zXtXyXyXtXnX4X&.>.,.>.,.&.i ;.(.].LXKXKXMXW.V.A.V.@XzXxXiXiXzXxXbXbXbXCXVXiXuX<X%X%X;X;X,X<X;X;X6XOX^ ..+.+.+.+.+.+.^ @.PXIXIXIX",
"VX7XyXtXtXtXaXC.H :.2.2.2.>.&.).'.gXLXHX6Xh.A.H.T.;X,X<XiXvXuXuXbXCXBXbX9X%X%X;X:X:X<X<X;XOX;X,X<X%X..X.+.+.+.+.+.+.....cXIXIXIX",
"BX7XyXyXyXuXsX|.2 + o @ e >.2.`.,.1.W.A.H.T.T.H.E.rX1XXX:XuX<X:XqXxXlX%X%X;X,X,X:X<X:X%XW.@X;X<X7X%X+.X.+.+.+.+.+.+...+.:XIXIXIX",
"ZX7XuXuXuXpXaX1.= & + X   o & e 1.3XY.L./.-X3X3XS.>.C.2X:X;X;X;X%X;X:X;X:X:X,X,X<X%XT.H.T.,X<X,X;Xf...@.+.+.+.+.+.O...y.H.NXIXIX",
"GXtXuXuXpXpXpXXXi q w 6 6 * + X # y 1./.*.0 7 7 5 - =.-X<X;X;X,X:X;X;X:X<X<X;XW.W.T.H.H.!.<X<XOX0.+.X.X.+.+.+.$.) ] o.e.u.7XIXIX",
"PXpXtXuXtXpXpXrXK.-.i t 6 5 e w & o % = % $ @ 7 *.W.T.H.;X<X;X,X:X:X:X<X;X!.K.H.H.H.W.;X,X,X<X%X+.^ 9.X.+.@.$._ Z } @.^ @.:XIXIX",
"IXBX7XtXpX7XtXtX#XA.2.,.J >.Z.1.H u e i C.W.~.=X/.E.T.H.W.<X,X,X:X:X<X:XT.H.K.T.T.H.@X<X,X,X,X9XH.[ +.+.+.O.] V ( r.+...h.T.NXIX",
"IXLXtXpXtX1XtX1XW.R.T.S.S.E./.E.~.S.S././.E.E.T.T.T.H.T.;X,X,X;X;X;X;X;XT.K.T.T.!.;X;X<X:X:X<X6Xs...X.+.+.( Z D +.@...+.f.h.lXIX",
"IXIXpX7XpXuX1XT.H.K.T.E.E.A.K.T.T.E.E.T.T.T.T.T.H.H.T.,X<X,X,X,X<X%XW.W.K.T.T.@X;X<X<X:X:X6X;Xr...+.+.@.] A V ] $.+.+.+.+.g.vXIX",
"IXIXzXg.,X7XOXH.K.T.T.T.K.T.T.T.K.T.T.K.T.T.K.W.@X@X;X<X,X;X,X<X<X%XK.H.T.K.W.W.%X<X:X:X<X<Xy.~ +.+.@.O.D A ( +.@.+.+.^ a.N.lXIX",
"IXIXIXW.g.OXT.K.K.T.T.K.T.T.T.T.T.T.T.A.H.H.T.,X<X<X,X,X;X<X,X%XW.T.K.T.T.T.H.W.,X,X:X:X6XH.W ..9.@.@.( Z D O.@.+.+.X.9.H.N.eXIX",
"IXIXIXcX$.H.W.T.T.T.K.T.T.T.K.T.T.K.T.!.@X@X;X<X,X,X;X,X<X%XW.K.H.T.T.T.T.K.T.OX<X;X,X,XyXf...f.@.+.( A D D ` @.+.+.^ M.OXN.OXIX",
"IXIXIXyXr.l.T.Q.T.T.T.T.T.T.T.T.T.K.T.%X<X6X<X,X;X,X,X,X,XW.H.T.T.T.T.T.H.T.;X<X<X;X,X,XQ.s.S.s.} D Z D D Z ] @.+...+.T.T.T.T.HX",
"IXIXIX@XN.j.5.G.@XT.K.T.T.T.T.T.T.T.K.K.@X@X,X<X,X<X<X<XOXH.T.T.T.T.K.T.W.%X6X;X%X<X<XW.V.OXs.~ ( Z A D A D O.@.X...f.W.T.H.!.IX",
"IXIXkXh.H.b.q.( h.#XW.K.T.T.K.T.T.T.T.T.H.H.W.%X,X%XW.!.T.A.T.T.T.W.T.@X6X%XW.W.OX<X;X,X6XK.~ ..D D D D A  .@.....s.!.T.T.h.@XIX",
"IXPXT.N.K.c.F.` b a.~.W.T.T.T.T.T.T.T.T.T.T.T.H.T.K.H.H.T.T.T.T.~.B.V.%X%XOX%X!.@X<X:X<X<XN.X.+.( ] ( Z ( $.X.a.H.W.W.T.W...6XIX",
"IXIXOXN.W.D.x.c.4.b q.E.#XW.T.T.T.T.T.T.T.T.T.T.K.T.W.W.!.!.#XW.m.9.M.K.N.OX<X%X:X:X:X:X,XOX;Xy.o.O.Z Z } ..+.K.OXT.K.T.W.~ $XIX",
"IXIXqXh.T.H.l.b.U.q.b ( x.U.~.~.OXW.!.Q.!.#X!.!.~.!.!.K.N.B.f.3. .b.R.T.W.%X;X,X<X:X:X:X;XqX6Xe.o.D V _ @...g.W.T.T.T.W.T.~ f.IX",
"IXIX;XN.T.W.D.l.v.b.6.n b D t.a.d.G.N.G.a.i.f.d.d.w.3.( Z b D q.b.T.T.%X6X<X;X<X:X<X<X:X<X6Xs./ ' V Q u.G.H.W.T.T.T.T.!.g.W +.PX",
"IXPXT.H.T.W.T.x.l.c.F.x.( M n M N D N D M n M M M n b n M  .v.b.l.D.;X;X@XT.W.,X;X:X;X<X6Xs.~ ) N  .G.R.W.T.T.T.T.T.T.T.0.~ 9.HX",
"IXNXN.K.T.T.W.K.x.l.c.b.D.s.D Z D M A A A D D D A D D A y.U.v.l.x.H.@XT.H.H.T.W.T.T.W.<XW...+.8.g.G.W.T.W.W.W.T.T.T.W.K.@.....NX",
"IXeXh.T.K.T.K.W.H.l.x.z.v.b.5.Z D D D D D D D D M D 6.c.b.x.c.T.T.T.H.T.T.T.T.A.K.K.W.W.G.K.A.!.!.T.T.%X<X:X<X;XT.K.W.H.....~ NX",
"IXBXH.H.T.T.K.K.W.H.x.x.c.b.x.D A D A D D D A Z 9.l.c.b.x.c.T.W.T.T.T.T.T.T.T.T.T.K.K.H.T.W.W.T.T.;X:X,X<X:X:X:XW.A.W.D.+...^ NX"
};
